  <svg version="1.1" id="Layer_1" xmlns="http://www.w3.org/2000/svg" xmlns:xlink="http://www.w3.org/1999/xlink" x="0px" y="0px"
     width="274.87px" height="9.077px" viewBox="0 0 274.87 9.077" enable-background="new 0 0 274.87 9.077" xml:space="preserve">
<g>
    <g>
        <path d="M110.07,1.847c-1.851,0-3.351,1.267-3.39,2.838h-1.3c-2.098,0-6.17-2.838-6.17-2.838
            c-4.15,2.197-21.954,2.946-22.325,2.961H0.555C0.249,4.808,0,5.058,0,5.364C0,5.67,0.249,5.918,0.555,5.918h76.199V5.92
            c15.054,0.246,23.198,1.973,23.198,1.973c1.614-2.046,5.107-2.493,6.791-2.574c0.312,1.328,1.683,2.328,3.327,2.328
            c1.875,0,3.394-1.299,3.394-2.9S111.945,1.847,110.07,1.847z M99.089,7.152c0,0-7.651-1.726-14.068-1.85
            c0,0,9.872-0.494,13.697-2.345c0,0,2.715,1.728,3.826,2.098C102.544,5.055,99.828,6.29,99.089,7.152z M109.881,6.783
            c-1.02,0-1.847-0.857-1.847-1.912c0-1.056,0.827-1.913,1.847-1.913c1.021,0,1.848,0.857,1.848,1.913
            C111.729,5.925,110.902,6.783,109.881,6.783z"/>
    </g>
    <g>
        <path d="M274.315,4.808h-76.333c-0.37-0.015-18.174-0.764-22.326-2.961c0,0-4.071,2.838-6.169,2.838h-1.299
            c-0.041-1.571-1.543-2.838-3.392-2.838c-1.874,0-3.395,1.298-3.395,2.899s1.521,2.9,3.395,2.9c1.646,0,3.017-1,3.328-2.328
            c1.684,0.081,5.176,0.528,6.791,2.574c0,0,8.145-1.727,23.198-1.973V5.918h76.201c0.308,0,0.555-0.248,0.555-0.555
            C274.87,5.058,274.623,4.808,274.315,4.808z M164.986,6.783c-1.021,0-1.849-0.857-1.849-1.912c0-1.056,0.828-1.913,1.849-1.913
            s1.847,0.857,1.847,1.913C166.833,5.925,166.007,6.783,164.986,6.783z M175.78,7.152c-0.741-0.862-3.457-2.097-3.457-2.097
            c1.111-0.37,3.828-2.098,3.828-2.098c3.823,1.851,13.696,2.345,13.696,2.345C183.432,5.426,175.78,7.152,175.78,7.152z"/>
    </g>
    <g>
        <path d="M124.283,4.206c2.474,1.828,7.394,0.598,11.331-1.125c3.948-1.729,7.65-2.961,7.65-2.961
            c-2.223-0.741-7.335,2.149-12.587,3.702C126.099,5.176,124.478,4.324,124.283,4.206z"/>
    </g>
    <g>
        <path d="M151.037,5.086c-0.648-0.648-2.751-1.334-7.033,0.092c-3.332,1.109-8.144,3.054-8.144,3.054
            c3.609,0.37,4.534-1.202,9.255-2.684C149.377,4.211,151.037,5.086,151.037,5.086z"/>
    </g>
    <g>
        <path d="M153.393,0.09c-4.878-0.355-9.012,1.404-13.009,3.104l-1.729,0.733c-4.16,1.771-9.859,4.196-15.086,4.027
            c-4.775-0.153-7.514-1.404-7.514-3.424c0-1.771,1.695-2.799,5.039-3.058c3.359-0.257,6.275,1.733,6.304,1.752
            c0.253,0.177,0.599,0.115,0.772-0.138c0.175-0.251,0.114-0.596-0.138-0.772c-0.131-0.091-3.26-2.238-7.023-1.949
            c-5.013,0.388-6.065,2.478-6.065,4.165c0,1.589,1.116,4.292,8.59,4.534c5.472,0.177,11.032-1.953,15.287-3.764l1.728-0.734
            c3.876-1.648,8.151-3.705,12.762-3.371c5.45,0.397,6.149,2.138,6.149,3.611c0,0.425-0.163,0.791-0.498,1.116
            c-0.896,0.867-2.933,1.363-5.315,1.289c-2.894-0.086-5.055-0.918-5.082-0.931c-0.275-0.134-0.608-0.017-0.742,0.26
            c-0.134,0.274-0.018,0.605,0.258,0.739c0.123,0.06,2.396,0.948,5.533,1.043c2.713,0.083,5.001-0.518,6.121-1.602
            c0.555-0.54,0.837-1.184,0.837-1.915C160.571,1.945,158.29,0.446,153.393,0.09z"/>
    </g>
</g>
</svg>